frame:0    pts:0       pts_time:0
lavfi.psnr.mse.y=217.583817
lavfi.psnr.psnr.y=24.754538
lavfi.psnr.mse.u=347.261658
lavfi.psnr.psnr.u=22.724236
lavfi.psnr.mse.v=750.105164
lavfi.psnr.psnr.v=19.379581
lavfi.psnr.mse_avg=327.950348
lavfi.psnr.psnr_avg=22.972723
frame:1    pts:1       pts_time:1
lavfi.psnr.mse.y=232.096054
lavfi.psnr.psnr.y=24.474127
lavfi.psnr.mse.u=439.074921
lavfi.psnr.psnr.u=21.705418
lavfi.psnr.mse.v=733.735474
lavfi.psnr.psnr.v=19.475409
lavfi.psnr.mse_avg=350.199097
lavfi.psnr.psnr_avg=22.687653
frame:2    pts:2       pts_time:2
lavfi.psnr.mse.y=230.242416
lavfi.psnr.psnr.y=24.508951
lavfi.psnr.mse.u=475.461121
lavfi.psnr.psnr.u=21.359653
lavfi.psnr.mse.v=736.623230
lavfi.psnr.psnr.v=19.458349
lavfi.psnr.mse_avg=355.509003
lavfi.psnr.psnr_avg=22.622297
frame:3    pts:3       pts_time:3
lavfi.psnr.mse.y=246.633865
lavfi.psnr.psnr.y=24.210276
lavfi.psnr.mse.u=534.314758
lavfi.psnr.psnr.u=20.852833
lavfi.psnr.mse.v=745.052124
lavfi.psnr.psnr.v=19.408937
lavfi.psnr.mse_avg=377.650391
lavfi.psnr.psnr_avg=22.359903
frame:4    pts:4       pts_time:4
lavfi.psnr.mse.y=236.284393
lavfi.psnr.psnr.y=24.396454
lavfi.psnr.mse.u=580.832336
lavfi.psnr.psnr.u=20.490295
lavfi.psnr.mse.v=718.656677
lavfi.psnr.psnr.v=19.565590
lavfi.psnr.mse_avg=374.104431
lavfi.psnr.psnr_avg=22.400875
